<?xml version="1.0" encoding="utf-8"?>
<!-- Generator: Adobe Illustrator 19.1.0, SVG Export Plug-In . SVG Version: 6.00 Build 0)  -->
<!DOCTYPE svg PUBLIC "-//W3C//DTD SVG 1.1//EN" "http://www.w3.org/Graphics/SVG/1.1/DTD/svg11.dtd">
<svg version="1.1" id="Layer_2" xmlns="http://www.w3.org/2000/svg" xmlns:xlink="http://www.w3.org/1999/xlink" x="0px" y="0px"
	 viewBox="-370 248.3 100 100" style="enable-background:new -370 248.3 100 100;" xml:space="preserve">
<g>
	<path d="M-282.9,271c-5,0.2-5.8,1.1-5.8,7v40.6c0,5.9,0.9,6.8,5.8,7v1.6c-3.4-0.2-9.1-0.2-14.5-0.2c-5.9,0-11.4,0.1-14.5,0.2v-1.6
		c5.5-0.2,6.6-1.1,6.6-7v-41.9l-19.7,50.5h-1.3l-23-52.5v36.6c0,10.9,0.5,13.3,8.3,14.4v1.6c-2.2-0.2-6.1-0.2-9.2-0.2
		c-2.4,0-5.2,0.1-6.8,0.2v-1.6c5-1.1,5.8-3.5,5.8-12.7V278c0-5.9-0.9-6.8-5.8-7v-1.6c1.6,0.2,4.4,0.2,6.8,0.2
		c6.3,0,12.2-0.1,16.9-0.2l15.5,34.7l13.4-34.5h7.1c5.4,0,11.1-0.1,14.5-0.2V271z"/>
</g>
</svg>
